<?xml version="1.0" encoding="utf-8"?>
<!-- Generator: Adobe Illustrator 28.1.0, SVG Export Plug-In . SVG Version: 6.00 Build 0)  -->
<svg version="1.1" id="Layer_1" xmlns="http://www.w3.org/2000/svg" xmlns:xlink="http://www.w3.org/1999/xlink" x="0px" y="0px"
	 viewBox="0 0 64 64" style="enable-background:new 0 0 64 64;" xml:space="preserve">
<style type="text/css">
	.st0{font-family:'Cunia-Bold';}
	.st1{font-size:35px;}
	.st2{fill:none;stroke:#FFFFFF;stroke-miterlimit:10;}
	.st3{fill:none;}
	.st4{fill:#FFFFFF;stroke:#231F20;stroke-miterlimit:10;}
	.st5{font-size:16px;}
	.st6{font-size:8px;}
</style>
<path d="M2.5,20L2.5,20C1.1,20,0,18.9,0,17.5v-15C0,1.1,1.1,0,2.5,0l0,0C3.9,0,5,1.1,5,2.5v15C5,18.9,3.9,20,2.5,20z"/>
<path d="M20,2.5L20,2.5C20,3.9,18.9,5,17.5,5h-15C1.1,5,0,3.9,0,2.5l0,0C0,1.1,1.1,0,2.5,0h15C18.9,0,20,1.1,20,2.5z"/>
<rect width="5" height="5"/>
<path d="M44,2.8V2.2C44,1,45,0,46.2,0h15.6C63,0,64,1,64,2.2v0.6C64,4,63,5,61.8,5H46.2C45,5,44,4,44,2.8z"/>
<path d="M61.5,20L61.5,20c-1.4,0-2.5-1.1-2.5-2.5v-15C59,1.1,60.1,0,61.5,0l0,0C62.9,0,64,1.1,64,2.5v15C64,18.9,62.9,20,61.5,20z"
	/>
<rect x="59" y="0" width="5" height="5"/>
<path d="M20,61.3v0.5c0,1.3-1,2.3-2.3,2.3L2.3,64C1,64,0,63,0,61.7v-0.5C0,60,1,59,2.3,59h15.5C19,59,20,60,20,61.3z"/>
<path d="M2.5,44L2.5,44C3.9,44,5,45.1,5,46.5v15C5,62.9,3.9,64,2.5,64l0,0C1.1,64,0,62.9,0,61.5v-15C0,45.1,1.1,44,2.5,44z"/>
<rect x="0" y="59" width="5" height="5"/>
<path d="M61.5,44L61.5,44c1.4,0,2.5,1.1,2.5,2.5v15c0,1.4-1.1,2.5-2.5,2.5l0,0c-1.4,0-2.5-1.1-2.5-2.5v-15C59,45.1,60.1,44,61.5,44z
	"/>
<path d="M44,61.5L44,61.5c0-1.4,1.1-2.5,2.5-2.5h15c1.4,0,2.5,1.1,2.5,2.5l0,0c0,1.4-1.1,2.5-2.5,2.5h-15C45.1,64,44,62.9,44,61.5z"
	/>
<rect x="59" y="59" width="5" height="5"/>
<text transform="matrix(-1 0 0 1 55.501 35.2946)" class="st0 st1">L</text>
<text transform="matrix(1 0 0 1 8.4275 34.9575)" class="st0 st1">M</text>
<text transform="matrix(1 0 0 1 8.4275 34.9575)" class="st2 st0 st1">M</text>
<rect x="35.1" y="5.2" class="st3" width="20.4" height="38.7"/>
<circle class="st4" cx="32" cy="22.4" r="12.4"/>
<text transform="matrix(1 0 0 1 9.9931 46.4469)" class="st0 st5">FOOD</text>
<text transform="matrix(1 0 0 1 10.947 52.3193)" class="st0 st6">ANALYZER</text>
</svg>
