<?xml version="1.0" encoding="UTF-8"?>
<svg id="Layer_1" data-name="Layer 1" xmlns="http://www.w3.org/2000/svg" viewBox="0 0 64 64.1">
  <defs>
    <style>
      .cls-1 {
        letter-spacing: -.1em;
      }

      .cls-2 {
        letter-spacing: 0em;
      }

      .cls-3 {
        fill: #fff;
        stroke: #231f20;
        stroke-miterlimit: 10;
      }

      .cls-4 {
        letter-spacing: -.02em;
      }

      .cls-4, .cls-5 {
        font-size: 35px;
      }

      .cls-4, .cls-5, .cls-6, .cls-7 {
        font-family: Cunia-Bold, Cunia;
        font-weight: 700;
        isolation: isolate;
      }

      .cls-8, .cls-9 {
        stroke-width: 0px;
      }

      .cls-9 {
        fill: none;
      }

      .cls-6 {
        font-size: 8px;
      }

      .cls-7 {
        font-size: 16px;
      }
    </style>
  </defs>
  <path class="cls-8" d="M2.5,20h0c-1.4,0-2.5-1.1-2.5-2.5V2.5C0,1.1,1.1,0,2.5,0h0c1.4,0,2.5,1.1,2.5,2.5v15c0,1.4-1.1,2.5-2.5,2.5Z"/>
  <path class="cls-8" d="M20,2.5h0c0,1.4-1.1,2.5-2.5,2.5H2.5c-1.4,0-2.5-1.1-2.5-2.5h0C0,1.1,1.1,0,2.5,0h15c1.4,0,2.5,1.1,2.5,2.5Z"/>
  <rect class="cls-8" width="5" height="5"/>
  <path class="cls-8" d="M44,2.8v-.6c0-1.2,1-2.2,2.2-2.2h15.6c1.2,0,2.2,1,2.2,2.2v.6c0,1.2-1,2.2-2.2,2.2h-15.6c-1.2,0-2.2-1-2.2-2.2Z"/>
  <path class="cls-8" d="M61.5,20h0c-1.4,0-2.5-1.1-2.5-2.5V2.5c0-1.4,1.1-2.5,2.5-2.5h0c1.4,0,2.5,1.1,2.5,2.5v15c0,1.4-1.1,2.5-2.5,2.5Z"/>
  <rect class="cls-8" x="59" width="5" height="5"/>
  <path class="cls-8" d="M20,61.3v.5c0,1.3-1,2.3-2.3,2.3l-15.4-.1c-1.3,0-2.3-1-2.3-2.3v-.5c0-1.2,1-2.2,2.3-2.2h15.5c1.2,0,2.2,1,2.2,2.3Z"/>
  <path class="cls-8" d="M2.5,44h0c1.4,0,2.5,1.1,2.5,2.5v15c0,1.4-1.1,2.5-2.5,2.5h0c-1.4,0-2.5-1.1-2.5-2.5v-15c0-1.4,1.1-2.5,2.5-2.5Z"/>
  <rect class="cls-8" y="59" width="5" height="5"/>
  <path class="cls-8" d="M61.5,44h0c1.4,0,2.5,1.1,2.5,2.5v15c0,1.4-1.1,2.5-2.5,2.5h0c-1.4,0-2.5-1.1-2.5-2.5v-15c0-1.4,1.1-2.5,2.5-2.5Z"/>
  <path class="cls-8" d="M44,61.5h0c0-1.4,1.1-2.5,2.5-2.5h15c1.4,0,2.5,1.1,2.5,2.5h0c0,1.4-1.1,2.5-2.5,2.5h-15c-1.4,0-2.5-1.1-2.5-2.5Z"/>
  <rect class="cls-8" x="59" y="59" width="5" height="5"/>
  <text class="cls-4" transform="translate(55.5 35.29) rotate(-180) scale(1 -1)"><tspan x="0" y="0">L</tspan></text>
  <text class="cls-5" transform="translate(8.43 34.96)"><tspan x="0" y="0">M</tspan></text>
  <rect class="cls-9" x="35.1" y="5.2" width="20.4" height="38.7"/>
  <circle class="cls-3" cx="32" cy="22.4" r="12.4"/>
  <text class="cls-7" transform="translate(9.99 46.45)"><tspan class="cls-2" x="0" y="0">F</tspan><tspan x="9.86" y="0">OOD</tspan></text>
  <text class="cls-6" transform="translate(10.95 52.32)"><tspan x="0" y="0">ANA</tspan><tspan class="cls-1" x="17.29" y="0">L</tspan><tspan x="21.29" y="0">YZER</tspan></text>
</svg>